HIERARCHY
ROOT Hips
{
	OFFSET 0.00000 0.00000 0.00000
	CHANNELS 6 Xposition Yposition Zposition Zrotation Yrotation Xrotation 
	JOINT LHipJoint
	{
		OFFSET 0 0 0
		CHANNELS 3 Zrotation Yrotation Xrotation
		JOINT LeftHip
		{
			OFFSET 1.61328 -1.70571 0.84375
			CHANNELS 3 Zrotation Yrotation Xrotation
			JOINT LeftKnee
			{
				OFFSET 2.32400 -6.38513 0.00000
				CHANNELS 3 Zrotation Yrotation Xrotation
				JOINT LeftAnkle
				{
					OFFSET 2.58843 -7.11166 0.00000
					CHANNELS 3 Zrotation Yrotation Xrotation
					JOINT LeftToe
					{
						OFFSET 0.17200 -0.47257 2.47970
						CHANNELS 3 Zrotation Yrotation Xrotation
						End Site
						{
							OFFSET 0.00000 -0.00000 1.26912
						}
					}
				}
			}
		}
	}
	JOINT RHipJoint
	{
		OFFSET 0 0 0
		CHANNELS 3 Zrotation Yrotation Xrotation
		JOINT RightHip
		{
			OFFSET -1.49930 -1.70570 0.84375
			CHANNELS 3 Zrotation Yrotation Xrotation
			JOINT RightKnee
			{
				OFFSET -2.30458 -6.33178 0.00000
				CHANNELS 3 Zrotation Yrotation Xrotation
				JOINT RightAnkle
				{
					OFFSET -2.62261 -7.20556 0.00000
					CHANNELS 3 Zrotation Yrotation Xrotation
					JOINT RightToe
					{
						OFFSET -0.18709 -0.51403 2.51340
						CHANNELS 3 Zrotation Yrotation Xrotation
						End Site
						{
							OFFSET -0.00000 -0.00000 1.28858
						}
					}
				}
			}
		}
	}
	JOINT lowerback
	{
		OFFSET 0 0 0
		CHANNELS 3 Zrotation Yrotation Xrotation
		JOINT Chest
		{
			OFFSET -0.03798 2.19274 -0.19881
			CHANNELS 3 Zrotation Yrotation Xrotation
			JOINT Chest2
			{
				OFFSET -0.00024 2.19460 0.05248
				CHANNELS 3 Zrotation Yrotation Xrotation
				JOINT lowerneck
				{
					OFFSET 0 0 0
					CHANNELS 3 Zrotation Yrotation Xrotation
					JOINT Neck
					{
						OFFSET -0.00746 1.82323 0.17286
						CHANNELS 3 Zrotation Yrotation Xrotation
						JOINT Head
						{
							OFFSET 0.11826 1.82121 -0.27841
							CHANNELS 3 Zrotation Yrotation Xrotation
							End Site
							{
								OFFSET 0.03496 1.85543 -0.11495
							}
						}
					}
				}
				JOINT LeftCollar
				{
					OFFSET 0 0 0
					CHANNELS 3 Zrotation Yrotation Xrotation
					JOINT LeftShoulder
					{
						OFFSET 3.71926 0.78840 0.25473
CHANNELS 3 Zrotation Xrotation Yrotation
						JOINT LeftElbow
						{
OFFSET 0 -5.375870 0.000000
CHANNELS 3 Zrotation Xrotation Yrotation
							JOINT LeftWrist
							{
OFFSET 0 -3.359770 0.000000
CHANNELS 3 Zrotation Xrotation Yrotation
								JOINT lhand
								{
									OFFSET 0 0 0
CHANNELS 3 Zrotation Xrotation Yrotation
									JOINT LFingers
									{
OFFSET 0 -0.561860 0.000000
CHANNELS 3 Zrotation Xrotation Yrotation
										End Site
										{
OFFSET 0 -0.452990 0.000000
										}
									}
								}
								JOINT LThumb
								{
OFFSET 0 0.000000 0.000000
CHANNELS 3 Zrotation Xrotation Yrotation
									End Site
									{
OFFSET 0 -0.459900 0.459900
									}
								}
							}
						}
					}
				}
				JOINT RightCollar
				{
					OFFSET 0 0 0
					CHANNELS 3 Zrotation Yrotation Xrotation
					JOINT RightShoulder
					{
						OFFSET -3.65136 0.56074 0.01624
CHANNELS 3 Zrotation Xrotation Yrotation
						JOINT RightElbow
						{
OFFSET 0 -5.228190 0.000000
CHANNELS 3 Zrotation Xrotation Yrotation
							JOINT RightWrist
							{
OFFSET 0 -3.407640 0.000000
CHANNELS 3 Zrotation Xrotation Yrotation
								JOINT rhand
								{
									OFFSET 0 0 0
CHANNELS 3 Zrotation Xrotation Yrotation
									JOINT RFingers
									{
OFFSET 0 -0.583250 0.000000
CHANNELS 3 Zrotation Xrotation Yrotation
										End Site
										{
OFFSET 0 -0.470240 0.000000
										}
									}
								}
								JOINT RThumb
								{
OFFSET 0 0.000000 0.000000
CHANNELS 3 Zrotation Xrotation Yrotation
									End Site
									{
OFFSET 0 -0.477420 0.477420
									}
								}
							}
						}
					}
				}
			}
		}
	}
}
MOTION
Frames: 10
Frame Time: 0.008333333333333333
49.206600 16.835400 -7.357100 -21.268000 -86.805100 22.917800 0.000000 0.000000 0.000000 -20.350500 1.651800 -3.050400 0.799400 5.706600 15.935600 0.608900 3.816900 -16.622200 0.002800 -0.343500 -0.943900 0.000000 0.000000 0.000000 23.136400 1.679300 -9.503500 -2.529300 -9.891000 28.624300 -1.682700 -0.849400 -24.851600 -0.821800 -5.784200 16.159600 -0.804700 -0.454300 -5.148600 0.648900 -0.600700 3.345000 1.063500 -0.355000 6.388400 -9.774000 -9.510800 -2.001200 12.527800 -13.071900 3.397800 4.800700 -6.426600 2.812300 -0.000000 0.000000 0.000000 -2.547500 -4.979200 -19.243900 11.868500 -19.607100 2.058000 21.206700 1.738500 -16.205000 0.000000 0.000000 0.000000 -7.125000 0.000000 0.000000 -6.270900 47.195500 0.341000 -0.000000 0.000000 0.000000 0.113500 -3.678000 19.827400 -11.838200 -19.561500 -2.047800 -23.642000 -1.221100 -5.237600 0.000000 0.000000 0.000000 7.125000 0.000000 -0.000000 2.267700 24.265800 1.136200
49.205813 16.834600 -7.371829 -28.985415 -86.757953 30.422182 0.000000 0.000000 0.000000 -19.821211 1.667859 -3.220336 0.856253 5.901187 16.497931 0.627505 3.810290 -16.832902 0.005324 -0.469807 -1.290794 0.000000 0.000000 0.000000 23.749999 2.170336 -8.923353 -2.468519 -9.780490 28.268716 -1.687505 -1.313886 -25.061738 -0.850376 -5.881229 16.440187 -0.605898 -0.398871 -5.074578 0.793700 -0.554295 3.456262 1.107961 -0.328995 6.461803 -9.744315 -9.496184 -1.930840 12.526999 -13.049070 3.301016 4.803419 -6.418950 2.767537 0.000000 0.000000 0.000000 -2.567274 -5.060362 -19.086201 11.825823 -19.542896 2.043616 21.113503 1.901285 -16.097721 0.000000 0.000000 0.000000 -7.125000 0.000000 0.000000 -6.333650 47.069944 0.324805 0.000000 0.000000 0.000000 0.099807 -3.734404 19.875984 -11.832063 -19.552344 -2.045729 -23.684121 -1.255099 -5.263393 0.000000 0.000000 0.000000 7.125000 0.000000 0.000000 2.236561 24.235873 1.122224
49.217027 16.834653 -7.370605 -29.436081 -86.778612 30.840690 0.000000 0.000000 0.000000 -19.812163 1.694391 -3.247669 0.859042 5.910427 16.524833 0.628447 3.788063 -16.829522 0.004642 -0.440089 -1.209133 0.000000 0.000000 0.000000 23.753710 2.173673 -8.929336 -2.468053 -9.779605 28.265921 -1.681968 -1.334325 -25.029145 -0.845800 -5.865900 16.395747 -0.618290 -0.399621 -5.044303 0.789689 -0.555626 3.519434 1.110631 -0.331110 6.511364 -9.748728 -9.484410 -1.918067 12.592316 -13.033062 3.242082 4.826728 -6.411531 2.751078 0.000000 0.000000 0.000000 -2.570047 -5.075178 -19.033227 11.810030 -19.519172 2.038378 21.124784 1.887658 -16.033243 0.000000 0.000000 0.000000 -7.125000 0.000000 0.000000 -6.308172 47.003806 0.313094 0.000000 0.000000 0.000000 0.117928 -3.755007 19.819404 -11.847376 -19.575361 -2.050859 -23.642220 -1.142829 -5.140967 0.000000 0.000000 0.000000 7.125000 0.000000 0.000000 2.266583 24.370930 1.130175
49.226340 16.835942 -7.368329 -29.894820 -86.797836 31.303369 0.000000 0.000000 0.000000 -19.813580 1.666818 -3.292256 0.860958 5.916773 16.543149 0.626587 3.828520 -16.833489 0.004429 -0.431397 -1.185404 0.000000 0.000000 0.000000 23.749304 2.178640 -8.970014 -2.465671 -9.775171 28.251813 -1.673544 -1.341483 -24.970562 -0.843731 -5.858909 16.375526 -0.606265 -0.384800 -5.044520 0.777213 -0.537129 3.572405 1.092738 -0.321971 6.566865 -9.755542 -9.464709 -1.931427 12.621444 -13.005900 3.229518 4.838095 -6.397451 2.748991 0.000000 0.000000 0.000000 -2.570058 -5.012546 -19.027526 11.802353 -19.507586 2.035818 21.163900 1.864538 -16.015240 0.000000 0.000000 0.000000 -7.125000 0.000000 0.000000 -6.267153 46.990354 0.309011 0.000000 0.000000 0.000000 0.198447 -3.705948 19.702933 -11.817935 -19.530953 -2.041002 -23.629284 -1.003237 -5.094234 0.000000 0.000000 0.000000 7.125000 0.000000 0.000000 2.275787 24.422453 1.132071
49.232384 16.836510 -7.367110 -30.259325 -86.811283 31.668243 0.000000 0.000000 0.000000 -19.807381 1.679883 -3.310879 0.859616 5.912267 16.530086 0.623995 3.847391 -16.815645 0.004695 -0.442452 -1.215812 0.000000 0.000000 0.000000 23.751381 2.185033 -8.988067 -2.464284 -9.772674 28.243707 -1.669605 -1.336669 -24.939529 -0.844867 -5.862828 16.386968 -0.604253 -0.381467 -5.059069 0.773719 -0.533893 3.635402 1.088088 -0.321241 6.641960 -9.791653 -9.442881 -1.917426 12.636545 -12.966269 3.128652 4.853817 -6.379729 2.715824 0.000000 0.000000 0.000000 -2.595659 -4.958152 -18.941226 11.808212 -19.516365 2.037769 21.161859 1.906455 -16.081153 0.000000 0.000000 0.000000 -7.125000 0.000000 0.000000 -6.284331 47.059243 0.320590 0.000000 0.000000 0.000000 0.332729 -3.700760 19.577266 -11.794852 -19.496278 -2.033316 -23.607590 -0.939467 -5.126241 0.000000 0.000000 0.000000 7.125000 0.000000 0.000000 2.292305 24.388548 1.142105
49.237074 16.836700 -7.365781 -30.764971 -86.811541 32.168545 0.000000 0.000000 0.000000 -19.787141 1.679448 -3.335359 0.861763 5.919689 16.551648 0.623456 3.850933 -16.811326 0.005163 -0.462810 -1.271693 0.000000 0.000000 0.000000 23.768485 2.176226 -8.994656 -2.461019 -9.766637 28.224393 -1.664689 -1.330247 -24.901366 -0.844159 -5.860352 16.379702 -0.620623 -0.388619 -5.078822 0.785611 -0.543837 3.684812 1.108519 -0.328074 6.706438 -10.029820 -9.441048 -1.411835 12.979195 -12.985992 2.768075 5.024949 -6.410844 2.567758 0.000000 0.000000 0.000000 -2.651393 -4.979401 -18.742564 11.795448 -19.497163 2.033489 21.148989 1.980897 -16.022495 0.000000 0.000000 0.000000 -7.125000 0.000000 0.000000 -6.282929 46.995821 0.310611 0.000000 0.000000 0.000000 0.446245 -3.714397 19.494354 -11.818841 -19.532452 -2.041293 -23.589666 -0.925717 -5.162674 0.000000 0.000000 0.000000 7.125000 0.000000 0.000000 2.306082 24.349663 1.151000
49.238800 16.837442 -7.364031 -31.343691 -86.819107 32.739986 0.000000 0.000000 0.000000 -19.772182 1.666907 -3.338287 0.863627 5.925922 16.569725 0.624611 3.864086 -16.832343 0.004800 -0.446238 -1.226229 0.000000 0.000000 0.000000 23.783127 2.160724 -8.990380 -2.457089 -9.759478 28.201264 -1.658889 -1.316691 -24.853330 -0.848024 -5.873319 16.417253 -0.616061 -0.397989 -5.103532 0.791466 -0.558273 3.736189 1.110299 -0.335973 6.775645 -10.096148 -9.468989 -1.366587 13.045885 -13.023595 2.703210 5.056043 -6.431791 2.554643 0.000000 0.000000 0.000000 -2.674658 -4.988545 -18.761289 11.843449 -19.569403 2.049569 21.180294 1.925720 -16.095737 0.000000 0.000000 0.000000 -7.125000 0.000000 0.000000 -6.270309 47.077075 0.322649 0.000000 0.000000 0.000000 0.497336 -3.791157 19.488427 -11.824584 -19.541084 -2.043242 -23.605318 -0.923359 -5.159434 0.000000 0.000000 0.000000 7.125000 0.000000 0.000000 2.294251 24.352482 1.144989
49.240432 16.836934 -7.361002 -31.232534 -86.852287 32.622231 0.000000 0.000000 0.000000 -19.804991 1.720357 -3.334354 0.860934 5.916836 16.543209 0.624802 3.840198 -16.820488 0.004466 -0.431591 -1.185783 0.000000 0.000000 0.000000 23.737747 2.138090 -9.001388 -2.458300 -9.761700 28.208366 -1.657334 -1.273324 -24.825213 -0.845068 -5.863536 16.388943 -0.642728 -0.394607 -5.108728 0.775336 -0.551109 3.768593 1.109132 -0.333836 6.813006 -9.923480 -9.382378 -1.649639 12.923349 -12.881688 2.722118 4.988388 -6.351032 2.570664 0.000000 0.000000 0.000000 -2.709286 -5.049051 -18.707835 11.853173 -19.584027 2.052813 21.269033 1.977470 -16.134585 0.000000 0.000000 0.000000 -7.125000 0.000000 0.000000 -6.195694 47.130246 0.326898 0.000000 0.000000 0.000000 0.499681 -3.827944 19.512703 -11.845225 -19.572121 -2.050164 -23.632572 -1.000985 -5.159194 0.000000 0.000000 0.000000 7.125000 0.000000 0.000000 2.273996 24.351504 1.134866
49.243000 16.837700 -7.358121 -31.732576 -86.872317 33.147028 0.000000 0.000000 0.000000 -19.807896 1.701697 -3.379514 0.862990 5.923748 16.563355 0.623890 3.873917 -16.830941 0.004500 -0.434948 -1.195037 0.000000 0.000000 0.000000 23.731231 2.123893 -9.049586 -2.457131 -9.759541 28.201545 -1.650810 -1.255800 -24.770652 -0.840279 -5.847159 16.341576 -0.640496 -0.379569 -5.114555 0.779190 -0.532362 3.807890 1.113876 -0.325276 6.857683 -9.317997 -8.776055 -2.475828 12.550010 -12.018791 2.984071 4.799115 -5.890358 2.624103 0.000000 0.000000 0.000000 -2.753403 -5.113741 -18.777241 11.857393 -19.590389 2.054228 21.244659 1.960138 -16.142762 0.000000 0.000000 0.000000 -7.125000 0.000000 0.000000 -6.220590 47.135362 0.329059 0.000000 0.000000 0.000000 0.486876 -3.889431 19.421328 -11.861500 -19.596600 -2.055600 -23.645245 -1.025424 -5.191438 0.000000 0.000000 0.000000 7.125000 0.000000 0.000000 2.264914 24.315941 1.132172
49.240773 16.836873 -7.355460 -32.219082 -86.947107 33.650968 0.000000 0.000000 0.000000 -19.838213 1.748181 -3.395807 0.863007 5.923921 16.563735 0.625580 3.889065 -16.859594 0.004500 -0.432567 -1.188535 0.000000 0.000000 0.000000 23.688813 2.116858 -9.059333 -2.456420 -9.758253 28.197319 -1.653367 -1.121254 -24.737419 -0.855921 -5.899950 16.494462 -0.618773 -0.358486 -5.125860 0.753860 -0.504133 3.805253 1.078246 -0.309540 6.860286 -8.430245 -8.028983 -3.284112 11.576218 -10.969783 3.513015 4.394342 -5.341754 2.691556 0.000000 0.000000 0.000000 -2.712953 -5.108913 -18.788427 11.853032 -19.583897 2.052753 21.279174 2.006662 -16.172580 0.000000 0.000000 0.000000 -7.125000 0.000000 0.000000 -6.194993 47.171521 0.333240 0.000000 0.000000 0.000000 0.570502 -3.828970 19.277832 -11.833580 -19.554534 -2.046227 -23.614452 -0.953160 -5.203819 0.000000 0.000000 0.000000 7.125000 0.000000 0.000000 2.287861 24.303748 1.144354
